<?xml version="1.0" encoding="UTF-8"?>
<svg width="7px" height="14px" viewBox="0 0 7 14" version="1.1" xmlns="http://www.w3.org/2000/svg" xmlns:xlink="http://www.w3.org/1999/xlink">
    <!-- Generator: Sketch 55.1 (78136) - https://sketchapp.com -->
    <title>facebook-icon</title>
    <desc>Created with Sketch.</desc>
    <g id="Pages" stroke="none" stroke-width="1" fill="none" fill-rule="evenodd">
        <g id="Coding-test-desktop" transform="translate(-686.000000, -1628.000000)" fill="#FFFFFF" fill-rule="nonzero">
            <path d="M687.955073,1641.625 L687.955073,1635.81056 L686,1635.81056 L686,1633.50002 L687.955073,1633.50002 L687.955073,1631.67189 C687.955073,1630.70705 688.225906,1629.95803 688.767572,1629.42483 C689.309237,1628.89163 690.028636,1628.62503 690.92577,1628.62503 C691.653632,1628.62503 692.246079,1628.65888 692.703109,1628.72659 L692.703109,1630.78323 L691.484362,1630.78323 C691.027332,1630.78323 690.714182,1630.88479 690.544911,1631.08791 C690.409495,1631.25718 690.341787,1631.52801 690.341787,1631.90041 L690.341787,1633.50002 L692.499985,1633.50002 L692.195298,1635.81056 L690.341787,1635.81056 L690.341787,1641.625 L687.955073,1641.625 Z" id="facebook-icon"></path>
        </g>
    </g>
</svg>