<?xml version="1.0" encoding="UTF-8"?>
<svg width="14px" height="14px" viewBox="0 0 14 14" version="1.1" xmlns="http://www.w3.org/2000/svg" xmlns:xlink="http://www.w3.org/1999/xlink">
    <!-- Generator: Sketch 55.1 (78136) - https://sketchapp.com -->
    <title>insta-icon</title>
    <desc>Created with Sketch.</desc>
    <g id="Pages" stroke="none" stroke-width="1" fill="none" fill-rule="evenodd">
        <g id="Coding-test-desktop" transform="translate(-747.000000, -1629.000000)" fill="#FFFFFF" fill-rule="nonzero">
            <path d="M753.562484,1633.00588 C754.167952,1633.00588 754.729474,1633.15725 755.247051,1633.45998 C755.764628,1633.76271 756.174783,1634.17287 756.477516,1634.69045 C756.78025,1635.20802 756.931617,1635.76955 756.931617,1636.37501 C756.931617,1636.98048 756.78025,1637.542 756.477516,1638.05958 C756.174783,1638.57716 755.764628,1638.98731 755.247051,1639.29005 C754.729474,1639.59278 754.167952,1639.74415 753.562484,1639.74415 C752.957017,1639.74415 752.395495,1639.59278 751.877918,1639.29005 C751.360341,1638.98731 750.950186,1638.57716 750.647452,1638.05958 C750.344719,1637.542 750.193352,1636.98048 750.193352,1636.37501 C750.193352,1635.76955 750.344719,1635.20802 750.647452,1634.69045 C750.950186,1634.17287 751.360341,1633.76271 751.877918,1633.45998 C752.395495,1633.15725 752.957017,1633.00588 753.562484,1633.00588 Z M753.562484,1638.57227 C754.167952,1638.57227 754.685528,1638.35743 755.115215,1637.92774 C755.544902,1637.49806 755.759745,1636.98048 755.759745,1636.37501 C755.759745,1635.76955 755.544902,1635.25197 755.115215,1634.82228 C754.685528,1634.3926 754.167952,1634.17775 753.562484,1634.17775 C752.957017,1634.17775 752.43944,1634.3926 752.009754,1634.82228 C751.580067,1635.25197 751.365224,1635.76955 751.365224,1636.37501 C751.365224,1636.98048 751.580067,1637.49806 752.009754,1637.92774 C752.43944,1638.35743 752.957017,1638.57227 753.562484,1638.57227 Z M757.869115,1632.8594 C757.849583,1633.07424 757.766576,1633.25979 757.620092,1633.41604 C757.473608,1633.57229 757.292944,1633.65041 757.078101,1633.65041 C756.863258,1633.65041 756.677711,1633.57229 756.521462,1633.41604 C756.365212,1633.25979 756.287087,1633.07424 756.287087,1632.8594 C756.287087,1632.64455 756.365212,1632.45901 756.521462,1632.30276 C756.677711,1632.14651 756.863258,1632.06838 757.078101,1632.06838 C757.292944,1632.06838 757.478491,1632.14651 757.63474,1632.30276 C757.79099,1632.45901 757.869115,1632.64455 757.869115,1632.8594 Z M760.095672,1633.65041 C760.115203,1634.19728 760.124969,1635.10549 760.124969,1636.37501 C760.124969,1637.64454 760.11032,1638.55763 760.081023,1639.11426 C760.051727,1639.6709 759.968719,1640.1543 759.832001,1640.56446 C759.65622,1641.05274 759.387666,1641.47754 759.026339,1641.83887 C758.665011,1642.20019 758.240208,1642.46875 757.751927,1642.64453 C757.341772,1642.78125 756.858375,1642.86426 756.301736,1642.89355 C755.745096,1642.92285 754.832012,1642.9375 753.562484,1642.9375 C752.292956,1642.9375 751.379872,1642.92285 750.823233,1642.89355 C750.266594,1642.86426 749.783196,1642.77148 749.373041,1642.61523 C748.884761,1642.45898 748.459957,1642.20019 748.09863,1641.83887 C747.737303,1641.47754 747.468749,1641.05274 747.292968,1640.56446 C747.156249,1640.1543 747.073242,1639.6709 747.043945,1639.11426 C747.014648,1638.55763 747,1637.64454 747,1636.37501 C747,1635.10549 747.014648,1634.1924 747.043945,1633.63576 C747.073242,1633.07912 747.156249,1632.59573 747.292968,1632.18557 C747.468749,1631.69729 747.737303,1631.27249 748.09863,1630.91116 C748.459957,1630.54983 748.884761,1630.28128 749.373041,1630.1055 C749.783196,1629.96878 750.266594,1629.88577 750.823233,1629.85647 C751.379872,1629.82718 752.292956,1629.81253 753.562484,1629.81253 C754.832012,1629.81253 755.745096,1629.82718 756.301736,1629.85647 C756.858375,1629.88577 757.341772,1629.96878 757.751927,1630.1055 C758.240208,1630.28128 758.665011,1630.54983 759.026339,1630.91116 C759.387666,1631.27249 759.65622,1631.69729 759.832001,1632.18557 C759.968719,1632.59573 760.05661,1633.08401 760.095672,1633.65041 Z M758.689425,1640.24219 C758.806612,1639.91016 758.884737,1639.38282 758.9238,1638.66016 C758.943331,1638.23048 758.953097,1637.62501 758.953097,1636.84376 L758.953097,1635.90626 C758.953097,1635.10549 758.943331,1634.50002 758.9238,1634.08986 C758.884737,1633.34768 758.806612,1632.82033 758.689425,1632.50784 C758.455051,1631.90237 758.03513,1631.48245 757.429663,1631.24807 C757.117163,1631.13089 756.589821,1631.05276 755.847635,1631.0137 C755.417949,1630.99417 754.812482,1630.9844 754.031233,1630.9844 L753.093735,1630.9844 C752.312487,1630.9844 751.70702,1630.99417 751.277334,1631.0137 C750.554679,1631.05276 750.027336,1631.13089 749.695306,1631.24807 C749.089839,1631.48245 748.669918,1631.90237 748.435543,1632.50784 C748.318356,1632.82033 748.240231,1633.34768 748.201169,1634.08986 C748.181638,1634.51955 748.171872,1635.12502 748.171872,1635.90626 L748.171872,1636.84376 C748.171872,1637.62501 748.181638,1638.23048 748.201169,1638.66016 C748.240231,1639.38282 748.318356,1639.91016 748.435543,1640.24219 C748.689449,1640.84766 749.10937,1641.26758 749.695306,1641.50195 C750.027336,1641.61914 750.554679,1641.69727 751.277334,1641.73633 C751.70702,1641.75586 752.312487,1641.76563 753.093735,1641.76563 L754.031233,1641.76563 C754.832012,1641.76563 755.43748,1641.75586 755.847635,1641.73633 C756.589821,1641.69727 757.117163,1641.61914 757.429663,1641.50195 C758.03513,1641.24805 758.455051,1640.82813 758.689425,1640.24219 Z" id="insta-icon"></path>
        </g>
    </g>
</svg>