<?xml version="1.0" encoding="UTF-8"?>
<svg width="16px" height="16px" viewBox="0 0 16 16" version="1.1" xmlns="http://www.w3.org/2000/svg" xmlns:xlink="http://www.w3.org/1999/xlink">
    <!-- Generator: Sketch 55.1 (78136) - https://sketchapp.com -->
    <title>search-icon</title>
    <desc>Created with Sketch.</desc>
    <g id="Pages" stroke="none" stroke-width="1" fill="none" fill-rule="evenodd">
        <g id="Coding-test-desktop" transform="translate(-1162.000000, -42.000000)" fill="#BCBCBC" fill-rule="nonzero">
            <path d="M1177.78125,55.84375 C1177.92708,55.9895835 1178,56.1666665 1178,56.375 C1178,56.5833335 1177.92708,56.7604165 1177.78125,56.90625 L1176.90625,57.78125 C1176.76042,57.9270835 1176.58333,58 1176.375,58 C1176.16667,58 1175.98958,57.9270835 1175.84375,57.78125 L1172.71875,54.65625 C1172.57292,54.5104165 1172.5,54.3333335 1172.5,54.125 L1172.5,53.625 C1171.33333,54.5416665 1170,55 1168.5,55 C1167.3125,55 1166.22396,54.7083335 1165.23438,54.125 C1164.24479,53.5416665 1163.45833,52.7552085 1162.875,51.765625 C1162.29167,50.7760415 1162,49.6875 1162,48.5 C1162,47.3125 1162.29167,46.2239585 1162.875,45.234375 C1163.45833,44.2447915 1164.24479,43.4583335 1165.23438,42.875 C1166.22396,42.2916665 1167.3125,42 1168.5,42 C1169.6875,42 1170.77604,42.2916665 1171.76562,42.875 C1172.75521,43.4583335 1173.54167,44.2447915 1174.125,45.234375 C1174.70833,46.2239585 1175,47.3125 1175,48.5 C1175,50 1174.54167,51.3333335 1173.625,52.5 L1174.125,52.5 C1174.33333,52.5 1174.51042,52.5729165 1174.65625,52.71875 L1177.78125,55.84375 Z M1168.5,52.5 C1169.22917,52.5 1169.90104,52.3229165 1170.51562,51.96875 C1171.13021,51.6145835 1171.61458,51.1302085 1171.96875,50.515625 C1172.32292,49.9010415 1172.5,49.2291665 1172.5,48.5 C1172.5,47.7708335 1172.32292,47.0989585 1171.96875,46.484375 C1171.61458,45.8697915 1171.13021,45.3854165 1170.51562,45.03125 C1169.90104,44.6770835 1169.22917,44.5 1168.5,44.5 C1167.77083,44.5 1167.09896,44.6770835 1166.48438,45.03125 C1165.86979,45.3854165 1165.38542,45.8697915 1165.03125,46.484375 C1164.67708,47.0989585 1164.5,47.7708335 1164.5,48.5 C1164.5,49.2291665 1164.67708,49.9010415 1165.03125,50.515625 C1165.38542,51.1302085 1165.86979,51.6145835 1166.48438,51.96875 C1167.09896,52.3229165 1167.77083,52.5 1168.5,52.5 Z" id="search-icon"></path>
        </g>
    </g>
</svg>