<?xml version="1.0" encoding="UTF-8"?>
<svg width="14px" height="12px" viewBox="0 0 14 12" version="1.1" xmlns="http://www.w3.org/2000/svg" xmlns:xlink="http://www.w3.org/1999/xlink">
    <!-- Generator: Sketch 55.1 (78136) - https://sketchapp.com -->
    <title>twitter-icon</title>
    <desc>Created with Sketch.</desc>
    <g id="Pages" stroke="none" stroke-width="1" fill="none" fill-rule="evenodd">
        <g id="Coding-test-desktop" transform="translate(-713.000000, -1630.000000)" fill="#FFFFFF" fill-rule="nonzero">
            <path d="M725.550751,1632.90627 C725.568981,1632.97919 725.578095,1633.09768 725.578095,1633.26174 C725.578095,1634.57423 725.259085,1635.84116 724.621066,1637.06251 C723.964818,1638.35678 723.044247,1639.38672 721.859354,1640.15235 C720.565086,1641.00911 719.079412,1641.4375 717.402333,1641.4375 C715.79817,1641.4375 714.330726,1641.00911 713,1640.15235 C713.20052,1640.17058 713.428385,1640.17969 713.683592,1640.17969 C715.014318,1640.17969 716.208326,1639.76953 717.265615,1638.94922 C716.627596,1638.94922 716.06705,1638.76238 715.583978,1638.38868 C715.100906,1638.01498 714.768225,1637.54558 714.585934,1636.98048 C714.768225,1636.99871 714.941402,1637.00782 715.105464,1637.00782 C715.360671,1637.00782 715.615879,1636.98048 715.871087,1636.92579 C715.214838,1636.77996 714.667965,1636.44272 714.230466,1635.91407 C713.792967,1635.38543 713.574217,1634.78387 713.574217,1634.10939 L713.574217,1634.0547 C713.975258,1634.29168 714.403642,1634.41929 714.859371,1634.43752 C714.476559,1634.16408 714.166664,1633.81773 713.929685,1633.39846 C713.692707,1632.97919 713.574217,1632.5189 713.574217,1632.0176 C713.574217,1631.5163 713.710936,1631.03778 713.984373,1630.58206 C714.695308,1631.47528 715.565749,1632.18622 716.595695,1632.71486 C717.62564,1633.24351 718.723945,1633.53517 719.890609,1633.58986 C719.85415,1633.37111 719.835921,1633.15236 719.835921,1632.93361 C719.835921,1632.4232 719.963525,1631.94468 720.218733,1631.49807 C720.47394,1631.05146 720.820294,1630.70055 721.257793,1630.44534 C721.695292,1630.19013 722.169249,1630.06253 722.679664,1630.06253 C723.098934,1630.06253 723.486303,1630.14456 723.841771,1630.30862 C724.197239,1630.47268 724.511691,1630.69143 724.785128,1630.96487 C725.441377,1630.83726 726.052052,1630.6094 726.617155,1630.28128 C726.398406,1630.95575 725.979136,1631.4844 725.359346,1631.86721 C725.906219,1631.79429 726.453093,1631.63935 726.999967,1631.40237 C726.598926,1631.9857 726.115854,1632.487 725.550751,1632.90627 Z" id="twitter-icon"></path>
        </g>
    </g>
</svg>